# AST/ASF file generated using VICON BodyLanguage
# -----------------------------------------------
:version 1.10
:name VICON
:units
  mass 1.0
  length 0.45
  angle deg
:documentation
   .ast/.asf automatically generated from VICON data using
   VICON BodyBuilder and BodyLanguage model FoxedUp or BRILLIANT.MOD
:root
   order TX TY TZ RX RY RZ
   axis XYZ
   position 0 0 0  
   orientation 0 0 0 
:bonedata
  begin
     id 1 
     name lhipjoint
     direction 0.573633 -0.743009 0.344793 
     length 2.46257 
     axis 0 0 0  XYZ
  end
  begin
     id 2 
     name lfemur
     direction 0.34202 -0.939693 0  
     length 7.3842  
     axis 0 0 20  XYZ
    dof rx ry rz
    limits (-160.0 20.0)
           (-70.0 70.0)
           (-60.0 70.0)
  end
  begin
     id 3 
     name ltibia
     direction 0.34202 -0.939693 0   
     length 7.50407   
     axis 0 0 20   XYZ
    dof rx
    limits (-10.0 170.0)
  end
  begin
     id 4 
     name lfoot
     direction 0.110749 -0.304281 0.946123   
     length 1.95925   
     axis -90 7.62852e-016 20   XYZ
    dof rx rz
    limits (-45.0 90.0)
           (-70.0 20.0)
  end
  begin
     id 5 
     name ltoes
     direction 1.53554e-011 -4.21843e-011 1   
     length 0.978318   
     axis -90 7.62852e-016 20   XYZ
    dof rx
    limits (-90.0 20.0)
  end
  begin
     id 6 
     name rhipjoint
     direction -0.488109 -0.791693 0.367385   
     length 2.31113  
     axis 0 0 0  XYZ 
  end
  begin
     id 7 
     name rfemur
     direction -0.34202 -0.939693 0   
     length 7.40965   
     axis 0 0 -20   XYZ
    dof rx ry rz
    limits (-160.0 20.0)
           (-70.0 70.0)
           (-70.0 60.0)
  end
  begin
     id 8 
     name rtibia
     direction -0.34202 -0.939693 0   
     length 7.55548   
     axis 0 0 -20   XYZ
    dof rx
    limits (-10.0 170.0)
 end
 begin
     id 9 
     name rfoot
     direction -0.127594 -0.350561 0.927808   
     length 2.07199  
     axis -90 -7.62852e-016 -20   XYZ
    dof rx rz
    limits (-45.0 90.0)
           (-20.0 70.0)
  end
  begin
     id 10 
     name rtoes
     direction -1.53542e-011 -4.21909e-011 1   
     length 1.02667   
     axis -90 -7.62852e-016 -20   XYZ
    dof rx
    limits (-90.0 20.0)
  end
  begin
     id 11 
     name lowerback
     direction -0.0103342 0.997298 -0.0727278   
     length 2.02836   
     axis 0 0 0   XYZ
    dof rx ry rz
    limits (-20.0 45.0)
           (-30.0 30.0)
           (-30.0 30.0)
  end
  begin
     id 12 
     name upperback
     direction 0.0171146 0.999786 -0.011606   
     length 2.03179   
     axis 0 0 0   XYZ
    dof rx ry rz
    limits (-20.0 45.0)
           (-30.0 30.0)
           (-30.0 30.0)
  end
  begin
     id 13 
     name thorax
     direction 0.0216927 0.999513 0.0224343   
     length 2.03882   
     axis 0 0 0   XYZ
    dof rx ry rz
    limits (-20.0 45.0)
           (-30.0 30.0)
           (-30.0 30.0)
  end
  begin
     id 14 
     name lowerneck
     direction 0.000989287 0.993907 0.110221   
     length 1.75428   
     axis 0 0 0   XYZ
    dof rx ry rz
    limits (-20.0 45.0)
           (-30.0 30.0)
           (-30.0 30.0)
  end
  begin
     id 15 
     name upperneck
     direction -0.0172474 0.994813 -0.100253   
     length 1.77058   
     axis 0 0 0   XYZ
    dof rx ry rz
    limits (-20.0 45.0)
           (-30.0 30.0)
           (-30.0 30.0)
  end
  begin
     id 16
     name head
     direction -0.00486455 0.99894 -0.0457663  
     length 1.77427  
     axis 0 0 0   XYZ
    dof rx ry rz
    limits (-20.0 45.0)
           (-30.0 30.0)
           (-30.0 30.0)
  end
  begin
     id 17 
     name lclavicle
     direction 0.927314 0.333734 -0.169441  
     length 3.97584  
     axis 0 0 0   XYZ
    dof ry rz
    limits (-20.0 10.0)
           (0.0 20.0)
  end
  begin
     id 18 
     name lhumerus
     direction 1 -4.48965e-011 -3.25313e-028   
     length 4.76468   
     axis 180 -30 -90   XYZ
    dof rx ry rz
    limits (-60.0 90.0)
           (-90.0 90.0)
           (-90.0 90.0)
  end
  begin
     id 19
     name lradius
     direction 1 -4.48969e-011 -2.8465e-028   
     length 3.52712   
     axis -180 -30 -90   XYZ
    dof rx
    limits (-10.0 170.0)
  end
  begin
     id 20
     name lwrist
     direction 1 -4.4896e-011 -7.78665e-028   
     length 1.76356   
     axis 1.91374e-015 90 90   XYZ
    dof ry
    limits (-180.0 0.0)
 end
  begin
     id 21 
     name lhand
     direction 1 -4.48959e-011 -1.55733e-027   
     length 0.859564   
     axis 9.9371e-016 90 90   XYZ
    dof rx rz
    limits (-90.0 90.0)
           (-45.0 45.0)
  end
  begin
     id 22 
     name lfingers
     direction 1 -4.48965e-011 -3.11466e-027   
     length 0.693002   
     axis 1.98742e-015 90 90   XYZ
    dof rx
    limits (0.0 90.0)
  end
  begin
     id 23
     name lthumb
     direction 0.707107 -6.34948e-011 0.707107   
     length 0.995017   
     axis -90 45 2.85299e-015   XYZ
    dof rx rz
    limits (-45.0 45.0)
           (-45.0 45.0)
  end
  begin
     id 24 
     name rclavicle
     direction -0.899388 0.348209 -0.264294   
     length 3.68366  
     axis 0 0 0   XYZ 
    dof ry rz
    limits (-10.0 20.0)
           (-20.0 0.0)
  end
  begin
     id 25 
     name rhumerus
     direction -1 -4.48965e-011 -3.01536e-027  
     length 4.90577   
     axis 180 30 90   XYZ
    dof rx ry rz
    limits (-90.0 60.0)
           (-90.0 90.0)
           (-90.0 90.0)
  end
  begin
     id 26 
     name rradius
     direction -1 -4.48966e-011 3.93291e-027   
     length 3.42692   
     axis -180 30 90   XYZ
    dof rx
    limits (-10.0 170.0)
  end
  begin
     id 27 
     name rwrist
     direction -1 -4.48969e-011 -7.78665e-028   
     length 1.71346   
     axis 1.91374e-015 -90 -90   XYZ
    dof ry
    limits (-180.0 0.0)
  end
  begin
     id 28
     name rhand
     direction -1 -4.48967e-011 -1.55733e-027   
     length 0.740957   
     axis 9.9371e-016 -90 -90   XYZ
    dof rx rz
    limits (-90.0 90.0)
           (-45.0 45.0)
  end
  begin
     id 29
     name rfingers
     direction -1 -4.48949e-011 -3.11466e-027   
     length 0.597378   
     axis 1.98742e-015 -90 -90   XYZ
    dof rx
    limits (0.0 90.0)
  end
  begin
     id 30
     name rthumb
     direction -0.707107 -6.34931e-011 0.707107   
     length 0.857719   
     axis -90 -45 -2.85299e-015   XYZ
    dof rx rz
    limits (-45.0 45.0)
           (-45.0 45.0)
  end
:hierarchy
  begin
    root lhipjoint rhipjoint lowerback
    lhipjoint lfemur
    lfemur ltibia
    ltibia lfoot
    lfoot ltoes
    rhipjoint rfemur
    rfemur rtibia
    rtibia rfoot
    rfoot rtoes
    lowerback upperback
    upperback thorax
    thorax lowerneck lclavicle rclavicle
    lowerneck upperneck
    upperneck head
    lclavicle lhumerus
    lhumerus lradius
    lradius lwrist
    lwrist lhand lthumb
    lhand lfingers
    rclavicle rhumerus
    rhumerus rradius
    rradius rwrist
    rwrist rhand rthumb
    rhand rfingers
  end

#!OML:ASF E:\I on waltz\AllaLogoMonkeySwing\Project 1\Capture day 1\Session 1\Subject1.ASF
:FULLY-SPECIFIED
:DEGREES
190
root 14.3942 17.9791 20.0115 -5.2657 43.5874 -2.6796
lowerback 6.25522 1.15146 -2.04422
upperback -1.92889 1.42549 1.0905
thorax -5.59732 0.796223 2.12588
lowerneck -13.4269 4.46025 1.60305
upperneck 21.1328 7.17139 -4.9297
head 9.08977 3.03385 -1.08445
rclavicle 2.85008e-014 9.34288e-015
rhumerus -35.6654 -17.4128 -78.6497
rradius 28.8648
rwrist 2.49205
rhand -4.62293 -32.8559
rfingers 7.12502
rthumb 21.1557 -61.7216
lclavicle 2.85008e-014 9.34288e-015
lhumerus -43.6754 14.0845 87.4283
lradius 56.2265
lwrist 1.13976
lhand -5.43871 -20.0409
lfingers 7.12502
lthumb 20.3719 8.91056
rfemur 2.93871 -4.89682 21.7423
rtibia 16.3264
rfoot -7.98469 -9.03677
rtoes 9.45982
lfemur 2.5191 0.793082 -17.3512
ltibia 20.5132
lfoot -19.3408 9.54797
ltoes -41.3081
191
root 14.426 17.9727 20.0455 -4.78288 43.6854 -2.63611
lowerback 6.46421 1.10557 -1.89123
upperback -1.88711 1.38995 1.37409
thorax -5.67442 0.779429 2.33678
lowerneck -13.2249 4.98179 2.07789
upperneck 20.854 7.95644 -5.68609
head 9.04047 3.37079 -1.32718
rclavicle 1.37837e-014 -9.32424e-015
rhumerus -34.7773 -16.6184 -78.2109
rradius 29.7267
rwrist 2.03611
rhand -5.19879 -33.3098
rfingers 7.12502
rthumb 20.6024 -62.2364
lclavicle 1.37837e-014 -9.32424e-015
lhumerus -43.5638 14.2847 86.7647
lradius 56.2691
lwrist 1.73887
lhand -6.49283 -19.9076
lfingers 7.12502
lthumb 19.3585 9.14883
rfemur 2.63945 -4.98908 21.6705
rtibia 16.3374
rfoot -8.20208 -9.05119
rtoes 8.72091
lfemur 2.25371 0.950004 -17.371
ltibia 20.3886
lfoot -19.3795 9.69055
ltoes -41.4375
192
root 14.4563 17.9696 20.0766 -4.36044 43.717 -2.56324
lowerback 6.70375 1.05118 -1.78945
upperback -1.83779 1.33783 1.62896
thorax -5.76052 0.755787 2.54882
lowerneck -12.9504 5.5433 2.55431
upperneck 20.6611 8.76462 -6.26807
head 9.01045 3.73847 -1.50871
rclavicle 4.31114e-015 1.03368e-014
rhumerus -34.1238 -16.3037 -77.6704
rradius 30.8357
rwrist 1.40608
rhand -5.85302 -34.0834
rfingers 7.12502
rthumb 19.9736 -63.0769
lclavicle 4.31114e-015 1.03368e-014
lhumerus -43.501 14.784 85.8425
lradius 56.0895
lwrist 1.96863
lhand -7.15604 -19.6965
lfingers 7.12502
lthumb 18.7207 9.4227
rfemur 2.47326 -4.98247 21.5909
rtibia 16.2053
rfoot -8.20653 -9.01182
rtoes 8.0487
lfemur 2.16584 1.24023 -17.3359
ltibia 20.0863
lfoot -19.5663 9.89532
ltoes -41.4578
193
root 14.4894 17.9711 20.1078 -3.58214 43.7014 -1.93523
lowerback 6.79007 1.11822 -1.96504
upperback -1.73875 1.41094 1.64659
thorax -5.71524 0.796653 2.65697
lowerneck -12.4355 6.06648 3.1335
upperneck 20.3002 9.46459 -6.76133
head 8.8817 4.08374 -1.69783
rclavicle -5.35041e-014 -9.34288e-015
rhumerus -33.7221 -16.8164 -77.0269
rradius 32.1326
rwrist 0.557934
rhand -6.65569 -34.7732
rfingers 7.12502
rthumb 19.2019 -63.8453
lclavicle -5.35041e-014 -9.34288e-015
lhumerus -43.3096 15.1833 84.8132
lradius 55.6851
lwrist 1.95773
lhand -7.66668 -19.2153
lfingers 7.12502
lthumb 18.2295 9.95052
rfemur 2.3767 -5.06082 20.9959
rtibia 15.9887
rfoot -8.07753 -8.7837
rtoes 7.70838
lfemur 2.20075 1.45544 -17.8037
ltibia 19.6148
lfoot -19.7452 10.0438
ltoes -41.4289
194
root 14.5229 17.9755 20.1418 -2.52646 43.7338 -0.799512
lowerback 6.85796 1.22683 -2.54357
upperback -1.63274 1.49521 1.52492
thorax -5.66091 0.853419 2.84567
lowerneck -11.7745 6.64024 3.90596
upperneck 19.959 10.2173 -7.30148
head 8.75779 4.4694 -1.9321
rclavicle -5.0131e-014 -5.96354e-015
rhumerus -33.4263 -17.6891 -76.3394
rradius 33.3141
rwrist -0.704515
rhand -7.50657 -35.2906
rfingers 7.12502
rthumb 18.3836 -64.4419
lclavicle -5.0131e-014 -5.96354e-015
lhumerus -43.1304 15.5642 83.7286
lradius 55.1659
lwrist 2.02914
lhand -8.10795 -18.2519
lfingers 7.12502
lthumb 17.805 10.953
rfemur 2.41285 -5.22273 19.9505
rtibia 15.6974
rfoot -7.96797 -8.53669
rtoes 7.75437
lfemur 2.30515 1.66134 -18.7325
ltibia 19.1608
lfoot -20.087 10.1059
ltoes -41.2754
195
root 14.5527 17.984 20.174 -1.65469 43.7537 0.0411989
lowerback 6.91126 1.32249 -2.9127
upperback -1.54401 1.5844 1.45397
thorax -5.61346 0.906454 2.96878
lowerneck -11.2009 7.28891 4.62712
upperneck 19.8068 11.0766 -7.68589
head 8.7206 4.91133 -2.08899
rclavicle 3.68497e-014 0
rhumerus -33.0528 -18.4362 -75.7475
rradius 34.2588
rwrist -2.4757
rhand -8.44511 -35.479
rfingers 7.12502
rthumb 17.4805 -64.713
lclavicle 3.68497e-014 0
lhumerus -42.9585 16.0554 82.5807
lradius 54.4998
lwrist 2.09705
lhand -8.33829 -17.2107
lfingers 7.12502
lthumb 17.5833 12.0142
rfemur 2.39694 -5.29179 19.2213
rtibia 15.4144
rfoot -7.88225 -8.50339
rtoes 8.45535
lfemur 2.32486 1.97129 -19.3779
ltibia 18.7942
lfoot -20.4751 10.0935
ltoes -41.243
196
root 14.582 17.9956 20.2011 -0.86511 43.7353 0.647233
lowerback 6.89401 1.40164 -3.10267
upperback -1.48869 1.67362 1.45358
thorax -5.55843 0.955121 3.06561
lowerneck -10.6547 7.98203 5.16758
upperneck 19.7418 12.0169 -7.91982
head 8.71349 5.39099 -2.15488
rclavicle -2.33324e-014 -1.74931e-014
rhumerus -32.6999 -18.9858 -75.1999
rradius 35.1566
rwrist -4.40806
rhand -9.09244 -35.3916
rfingers 7.12502
rthumb 16.8575 -64.6799
lclavicle -2.33324e-014 -1.74931e-014
lhumerus -42.8304 16.7022 81.4228
lradius 53.6594
lwrist 2.08077
lhand -8.49994 -16.4458
lfingers 7.12502
lthumb 17.4277 12.7929
rfemur 2.2532 -5.33376 18.7073
rtibia 15.1704
rfoot -7.71272 -8.54572
rtoes 9.47548
lfemur 2.21415 2.305 -19.8454
ltibia 18.4924
lfoot -20.7487 9.97851
ltoes -41.3633
197
root 14.6038 18.0096 20.2242 -0.614667 43.685 0.340267
lowerback 6.84532 1.47479 -2.65586
upperback -1.48507 1.82343 1.64563
thorax -5.52995 1.01788 2.99747
lowerneck -10.0383 8.66891 5.58573
upperneck 19.5839 12.9646 -8.12607
head 8.66043 5.8734 -2.19514
rclavicle 5.10318e-014 9.54166e-015
rhumerus -32.4584 -19.5697 -74.6323
rradius 36.085
rwrist -6.12399
rhand -8.96561 -35.4761
rfingers 7.12502
rthumb 16.9795 -64.7539
lclavicle 5.10318e-014 9.54166e-015
lhumerus -42.7658 17.2098 80.3849
lradius 52.6913
lwrist 2.5385
lhand -9.08178 -16.1103
lfingers 7.12502
lthumb 16.8677 13.1771
rfemur 1.9423 -5.22331 19.0643
rtibia 14.9518
rfoot -7.41685 -8.67724
rtoes 9.53203
lfemur 1.89959 2.66628 -19.4698
ltibia 18.3437
lfoot -20.9762 9.81945
ltoes -41.4758
198
root 14.6209 18.0314 20.2428 -0.941551 43.4561 -0.825184
lowerback 6.8287 1.58693 -1.55221
upperback -1.50143 2.09031 1.95927
thorax -5.52734 1.12034 2.67136
lowerneck -9.36201 9.37662 6.19729
upperneck 19.3304 13.9555 -8.54979
head 8.60573 6.37501 -2.33514
rclavicle 2.09345e-014 8.34896e-015
rhumerus -32.3548 -20.1521 -74.1471
rradius 37.0511
rwrist -7.6396
rhand -8.59623 -35.7422
rfingers 7.12502
rthumb 17.3351 -64.9891
lclavicle 2.09345e-014 8.34896e-015
lhumerus -42.8287 17.7581 79.225
lradius 51.821
lwrist 2.4773
lhand -9.29553 -15.6317
lfingers 7.12502
lthumb 16.6619 13.6732
rfemur 1.52408 -4.84012 20.2257
rtibia 14.7797
rfoot -7.12918 -8.82061
rtoes 8.86077
lfemur 1.53207 3.11078 -18.2987
ltibia 18.2306
lfoot -21.1293 9.61356
ltoes -41.705
199
root 14.6403 18.0476 20.259 -0.901921 43.2586 -1.33906
lowerback 6.91031 1.71153 -0.858893
upperback -1.53545 2.32651 2.07868
thorax -5.60004 1.21759 2.37506
lowerneck -8.67112 10.0716 6.99387
upperneck 19.1476 14.9368 -9.05904
head 8.6049 6.87739 -2.53099
rclavicle -2.46477e-014 2.50469e-014
rhumerus -32.5435 -20.7576 -73.7078
rradius 38.1165
rwrist -8.88003
rhand -8.64199 -35.8699
rfingers 7.12502
rthumb 17.291 -65.1207
lclavicle -2.46477e-014 2.50469e-014
lhumerus -42.9876 18.2888 78.0029
lradius 50.9049
lwrist 2.69076
lhand -9.48163 -15.4822
lfingers 7.12502
lthumb 16.4828 13.8377
rfemur 1.22148 -4.56908 20.7329
rtibia 14.596
rfoot -6.86688 -8.83313
rtoes 8.64411
lfemur 1.25814 3.44876 -17.7599
ltibia 18.1233
lfoot -21.268 9.3642
ltoes -42.1143
200
root 14.6605 18.0608 20.2758 -0.792399 43.1165 -1.51483
lowerback 6.94896 1.86535 -0.495926
upperback -1.43053 2.56973 2.1898
thorax -5.51313 1.32695 2.25801
lowerneck -8.12422 10.6797 7.50706
upperneck 19.0058 15.8035 -9.37712
head 8.60676 7.31794 -2.6268
rclavicle 6.85062e-014 1.70955e-014
rhumerus -32.777 -21.3923 -73.1997
rradius 39.2066
rwrist -9.89084
rhand -8.98759 -35.8833
rfingers 7.12502
rthumb 16.9584 -65.163
lclavicle 6.85062e-014 1.70955e-014
lhumerus -42.9414 18.8059 77.0098
lradius 49.929
lwrist 2.96392
lhand -9.61771 -15.1344
lfingers 7.12502
lthumb 16.3518 14.1962
rfemur 1.15693 -4.42371 20.8805
rtibia 14.3541
rfoot -6.54428 -8.72368
rtoes 8.77401
lfemur 1.16433 3.72525 -17.516
ltibia 18.0327
lfoot -21.4104 9.14608
ltoes -42.2986
